<?xml version="1.0" encoding="utf-8"?>
<!-- Generator: Adobe Illustrator 18.1.0, SVG Export Plug-In . SVG Version: 6.00 Build 0)  -->
<svg version="1.1" id="Layer_1" xmlns="http://www.w3.org/2000/svg" xmlns:xlink="http://www.w3.org/1999/xlink" x="0px" y="0px"
	 viewBox="0 0 2000 2000" enable-background="new 0 0 2000 2000" xml:space="preserve">
<g>
	<path fill="#333333" d="M1300.5,678.6c-28.2-2.9-56.7-5-85.3-6.4c-65.7-74.4-161.9-121.3-269-121.3c-142.7,0-266,83.3-323.8,203.9
		c-115.8,39.3-225.6,91.5-327.8,154.9c44.1,27.4,89.7,52.6,136.6,75.7c-117.5,26.9-227.1,74.3-325,138.2
		c97.3-38.9,203.4-60.6,314.7-60.6c40.6,0,80.4,3.2,119.4,8.7c-12.4-31.1-21.4-63.9-26.4-98.1c7.2,20.8,15.9,41,26,60.3
		c27.2,10.9,54.7,21.2,82.6,30.6c57.8,120.6,181.1,204,323.8,204c107.1,0,203.2-46.9,269-121.3c28.6-1.4,57.1-3.5,85.3-6.4
		c-2.6-77-3.9-154.1-3.9-230.8C1296.5,833.1,1297.9,755.8,1300.5,678.6z M1204.5,1071.6c-1,1.6-2.1,3.2-3.1,4.8
		c-15.6,23.8-34.3,45.2-55.7,63.8c-1.8,1.6-3.7,3.2-5.6,4.7c-18.8,15.5-39.5,28.9-61.7,39.6c-4.4,2.1-8.9,4.2-13.5,6.1
		c-9.1,3.9-18.5,7.3-28,10.3c-2.4,0.7-4.8,1.5-7.2,2.1c-26.5,7.5-54.5,11.6-83.5,11.6h0l0,0c-78.9,0-150.8-30-205-79.2
		c-3.6-3.3-7.1-6.6-10.6-10.1c-3.4-3.4-6.8-7-10.1-10.6c-3.3-3.6-6.5-7.3-9.6-11.1c-7.1-8.7-13.8-17.7-20-27.2
		c-1.9-2.9-3.7-5.7-5.5-8.7c-28-46.1-44.1-100.2-44.1-158.1c0-73.7,26.1-141.2,69.6-193.9c1.6-1.9,3.1-3.7,4.7-5.6
		c8-9.2,16.5-18,25.5-26.2c2.6-2.4,5.3-4.7,8-7c4.7-4,9.6-7.9,14.5-11.6c3.9-2.9,7.9-5.8,12-8.5c2.8-1.9,5.6-3.7,8.5-5.5
		c2.5-1.6,5.1-3.1,7.6-4.6c6.5-3.8,13.2-7.4,20-10.8c3.9-1.9,7.9-3.8,11.9-5.5c4.9-2.2,9.9-4.2,15-6.1c1.5-0.6,3-1.1,4.5-1.7
		c32.2-11.5,66.8-17.9,103-17.9c44.7,0,87.2,9.6,125.5,26.9c2.3,1,4.5,2.1,6.7,3.1c102.2,49.2,172.7,153.8,172.7,274.8
		C1251,969.2,1234,1024.7,1204.5,1071.6z"/>
	<polygon fill="#333333" points="1043.7,887.7 955,872.1 994.1,683 837.5,921.3 928.9,936.9 884.5,1136.4 	"/>
	<g>
		<g>
			<path fill="#333333" d="M1320.5,910c0,173.6,6.6,345.7,19.5,516c30.9-5.5,61.1-12.4,90.3-20.7c11.9-163.5,18-328.7,18-495.3
				c0-166.5-6.1-331.6-17.9-495.1c-29.2-8.3-59.4-15.2-90.3-20.7C1327.1,564.4,1320.5,736.4,1320.5,910z"/>
		</g>
	</g>
	<path fill="#333333" d="M553.5,591.7c34.1-36.2,74.1-69.3,118.8-98.5c44.6-29.2,93.9-54.4,146.5-74.9c14.9-5.8,30.1-11.3,45.5-16.3
		c-19.2-1.3-38.5-2-57.8-2c-86.2,0-171.1,13.3-252.3,39.4c-69.7,22.4-136,54.1-197.4,94.2L486.2,679
		C505,648.5,527.5,619.2,553.5,591.7z"/>
	<g>
		<path fill="#333333" d="M806.6,374.9c41.2,0,81.7,3,121.3,8.7c29.3-7.4,59.2-13.3,89.5-17.9c-108.4-39.7-225.4-61.4-347.6-61.4
			c-101.5,0-199.5,14.9-292,42.7l45,119.5C538,407.9,668.4,374.9,806.6,374.9z"/>
	</g>
	<g>
		<path fill="#333333" d="M1893.8,913.1c0-56.1-45.5-101.5-101.5-101.5c-56.1,0-101.5,45.5-101.5,101.5
			c0,56.1,45.5,101.5,101.5,101.5C1848.4,1014.7,1893.8,969.2,1893.8,913.1z"/>
	</g>
	<g>
		<path fill="#333333" d="M1673.2,955.9c-4.9-13.5-7.4-28-7.4-42.8c0-14.8,2.5-29.2,7.4-42.8c-74.5-0.4-143.5-23.6-200.7-62.9
			c0.5,34.2,0.8,68.4,0.8,102.5c0,36.2-0.3,72.5-0.9,108.8C1529.6,979.5,1598.6,956.3,1673.2,955.9z"/>
	</g>
	<g>
		<path fill="#333333" d="M739,586.5c61.8-39.7,133.5-60.7,207.2-60.7c56,0,110,11.8,160.5,35.1c24.2,11.2,47.3,24.9,68.8,40.9
			c18.4,13.7,35.6,29.2,51.3,46c24.6,1.4,49.2,3.3,73.6,5.7c3.3-87.4,8.2-174.6,14.7-261.1l0.2-2.2c-47.3-7.1-96.3-10.9-146.5-10.9
			c-344.9,0-633.6,176.3-707,412.5c46.7-21.4,94.4-40.5,142.8-57.3C635.5,674.3,681.8,623.3,739,586.5z"/>
		<path fill="#333333" d="M1315.3,1430l-0.2-2.2c-6.6-86.8-11.5-174.3-14.8-262c-24.4,2.4-49,4.4-73.6,5.7
			c-15.7,16.8-32.9,32.2-51.3,46c-21.4,16-44.6,29.7-68.8,40.9c-50.5,23.3-104.5,35.1-160.5,35.1c-73.8,0-145.4-21-207.2-60.7
			c-57.2-36.7-103.4-87.7-134.4-147.9c-12.6-4.4-25.1-8.9-37.6-13.6l12.5,31.3l-42.7-6.1c-17-2.4-33.6-4.3-49.9-5.7
			c39.1,79,103.1,149.3,185.1,205.8c-0.1,0-0.1-0.1-0.2-0.1c49.6,54,80.1,125.7,80.1,204.8c0,50-12.2,97-33.6,138.6
			c-4,8-3.4,25,9.5,30.8c37.1,16.1,77.9,25,120.8,25c19.4,0,38.3-2,56.7-5.5c0-0.1-0.1-0.3-0.1-0.4c-4.1-20-6.4-40.7-6.4-62
			c0-79.2,30.3-151.3,79.9-205.5c-0.1,0-0.2,0-0.4-0.1c33.2,6.6,67.3,11.5,102.2,14.6c-0.4,0-0.9-0.1-1.3-0.1
			c1.1,42.8,11.3,83.3,28.4,120l26.8-26.8c-7.8-24.3-12.1-50.2-12.1-77c0-4.4,0.1-8.9,0.4-13.2c-0.5,0-0.9,0-1.4-0.1
			c15.7,0.7,31.5,1.1,47.5,1.1C1219,1440.9,1268,1437.1,1315.3,1430z"/>
	</g>
</g>
</svg>
